<svg clip-rule="evenodd" fill-rule="evenodd" stroke-linejoin="round" stroke-miterlimit="2" viewBox="0 0 560 400" xmlns="http://www.w3.org/2000/svg"><g transform="matrix(1.66502 0 0 1.66502 98.5364 108.807)"><path d="m102.968 82.685h-.439c-3.521 6.156-11.88 10.704-21.852 10.704-11.291 0-26.395-5.425-26.395-21.849 0-20.973 26.395-23.903 48.392-23.903v-1.762c0-8.653-7.332-12.903-16.131-12.903-7.478 0-14.665 3.518-19.21 8.065l-9.093-10.704c7.92-7.334 19.062-11.147 29.77-11.147 25.223 0 31.383 15.547 31.383 29.623v42.82h-16.425zm-.294-23.17h-3.959c-11.145 0-26.837 1.32-26.837 11.731 0 6.747 6.307 8.798 12.319 8.798 12.023 0 18.477-6.892 18.477-18.038zm-101.795-27.276v-13.015h11.377v-10.035l17.303-9.189v19.224h14.865v13.016h-14.865v34.707c0 6.306-.314 10.85 7.457 10.85 2.345 0 5.425-.438 7.48-1.466l.586 13.784c-3.08 1.173-7.772 1.908-11.731 1.908-18.624 0-21.095-11.439-21.095-24.931v-34.853z" fill="#14171d"/><path d="m198.926 50.92v-.305c9.769-1.678 14.807-11.448 14.807-20.76 0-21.492-20.859-29.323-39.216-29.454v-.006c-.045 0-.087.005-.132.005-.113-.001-.229-.005-.342-.005v.017c-22.506.172-39.523 12.514-40.131 36.16h24.271c-.151-9.548 5.872-15.027 16.269-15.104 8.278.076 15.009 3.878 15.009 10.678 0 9.158-9.616 11.143-17.249 11.143-2.289.154-4.579-.305-6.867-.152v18.014c2.288-.154 4.578-.305 6.867-.305 10.381 0 18.93 2.745 18.93 14.502 0 9.31-8.396 13.126-17.25 13.126-13.127 0-19.387-6.259-19.081-18.929h-24.271c-1.526 27.323 18.622 39.994 43.504 39.994 21.065 0 43.048-10.075 43.048-34.191-.001-12.521-5.954-21.221-18.166-24.428" fill="#e4110f" fill-rule="nonzero"/></g></svg>